<?xml version="1.0" standalone="no"?><!-- Generator: Adobe Fireworks CS6, Export SVG Extension by Aaron Beall (http://fireworks.abeall.com) . Version: 0.6.1  --><!DOCTYPE svg PUBLIC "-//W3C//DTD SVG 1.1//EN" "http://www.w3.org/Graphics/SVG/1.1/DTD/svg11.dtd"><svg id="Untitled-Page%201" viewBox="0 0 28 22" style="background-color:#ffffff00" version="1.1"	xmlns="http://www.w3.org/2000/svg" xmlns:xlink="http://www.w3.org/1999/xlink" xml:space="preserve"	x="0px" y="0px" width="28px" height="22px">	<g id="Layer%201">		<path d="M 18.3289 17.33 C 18.8938 19.5239 18.0347 19.955 15.4048 20.4847 C 12.7437 21.0208 11.7305 21.3972 11.0892 18.9767 L 18.3289 17.33 ZM 3.8966 20.2048 L 9.345 19.0256 C 10.138 22.0765 12.1853 22.4436 15.7223 21.6207 C 19.0131 20.8552 20.7039 19.7676 20.002 16.9858 L 25.6198 15.8636 L 16.9551 1.6545 L 2.2581 17.5504 L 2.4631 17.8824 C 2.2366 17.5157 1.6484 17.6317 1.3222 17.6251 C 1.3222 17.6251 -0.2035 17.5364 0.0229 17.9026 L 2.4789 21.8765 C 2.7047 22.2418 3.4103 20.8695 3.4103 20.8695 C 3.6453 20.4063 3.9181 20.2394 3.692 19.8733 L 3.8966 20.2048 ZM 26.3774 15.4498 C 26.6044 15.8222 27.1279 15.9387 27.5471 15.7101 C 27.9666 15.4813 28.1228 14.9935 27.8957 14.6205 L 19.2235 0.3773 C 18.9944 0.001 18.4696 -0.1129 18.0516 0.1227 C 17.634 0.3583 17.4813 0.8536 17.7102 1.2293 L 26.3774 15.4498 Z" fill="#fff"/>	</g></svg>